<svg width="1326" height="829" viewBox="0 0 1326 829" fill="none" xmlns="http://www.w3.org/2000/svg">
<rect width="1326" height="829" fill="white" style="mix-blend-mode:color-burn"/>
<path d="M660.154 789.182C661.911 790.939 664.761 790.939 666.518 789.182L695.156 760.544C696.913 758.787 696.913 755.938 695.156 754.18C693.398 752.423 690.549 752.423 688.792 754.18L663.336 779.636L637.88 754.18C636.123 752.423 633.273 752.423 631.516 754.18C629.759 755.938 629.759 758.787 631.516 760.544L660.154 789.182ZM663.336 701L667.032 703.567L667.836 702.41L667.836 701L663.336 701ZM646.664 725L642.968 722.433L641.104 725.115L643.077 727.718L646.664 725ZM663.336 747L667.836 747L667.836 745.488L666.922 744.282L663.336 747ZM658.836 673L658.836 701L667.836 701L667.836 673L658.836 673ZM659.64 698.433L642.968 722.433L650.359 727.567L667.032 703.567L659.64 698.433ZM643.077 727.718L659.749 749.718L666.922 744.282L650.25 722.282L643.077 727.718ZM658.836 747L658.836 786L667.836 786L667.836 747L658.836 747Z" fill="#03A500"/>
<g filter="url(#filter0_d)">
<rect x="193" y="158" width="923.95" height="450" rx="6" fill="#F5F5F5"/>
<rect x="193.5" y="158.5" width="922.95" height="449" rx="5.5" stroke="black" stroke-opacity="0.21"/>
</g>
<path d="M226.345 292V287.5H230.845V292H226.345ZM230.845 287.5V283H235.345V287.5H230.845ZM235.345 283V278.5H239.845V283H235.345ZM235.345 278.5H230.845V274H235.345V278.5ZM230.845 274H226.345V269.5H230.845V274ZM244.345 292V287.5H248.845V292H244.345ZM248.845 287.5V283H253.345V287.5H248.845ZM253.345 283V278.5H257.845V283H253.345ZM253.345 278.5H248.845V274H253.345V278.5ZM248.845 274H244.345V269.5H248.845V274ZM302.845 292V287.5V283H298.345H293.845V287.5H289.345V292H284.845V287.5H289.345V283V278.5H284.845V274H289.345V269.5H293.845H298.345H302.845H307.345V274V278.5V283V287.5V292H302.845ZM298.345 278.5H302.845V274H298.345H293.845H289.345V278.5H293.845H298.345ZM347.845 287.5H352.345V292H347.845H343.345H338.845H334.345V287.5H338.845H343.345H347.845ZM352.345 287.5V283H356.845V287.5H352.345ZM352.345 283H347.845H343.345H338.845H334.345V278.5H338.845H343.345H347.845H352.345V283ZM352.345 278.5V274H356.845V278.5H352.345ZM352.345 274H347.845H343.345H338.845H334.345V269.5H338.845H343.345H347.845H352.345V274ZM379.345 292V287.5V283H374.845H370.345H365.845V287.5V292H361.345V287.5V283V278.5V274V269.5H365.845V274V278.5H370.345H374.845H379.345V274V269.5H383.845V274V278.5V283V287.5V292H379.345ZM406.345 292V287.5V283H401.845H397.345H392.845V287.5V292H388.345V287.5V283V278.5V274H392.845V278.5H397.345H401.845H406.345V274H410.845V278.5V283V287.5V292H406.345ZM406.345 274H401.845H397.345H392.845V269.5H397.345H401.845H406.345V274ZM415.345 292V287.5V283V278.5V274V269.5H419.845V274V278.5H424.345V274H428.845V278.5V283V287.5H433.345H437.845H442.345V292H437.845H433.345H428.845V287.5H424.345V283H419.845V287.5V292H415.345ZM442.345 287.5V283V278.5V274H446.845V278.5V283V287.5H442.345ZM442.345 274H437.845H433.345H428.845V269.5H433.345H437.845H442.345V274ZM451.345 296.5V292H455.845V296.5H451.345ZM455.845 292V287.5H460.345V292H455.845ZM500.845 287.5H505.345V292H500.845H496.345H491.845V287.5H496.345H500.845ZM505.345 287.5V283V278.5V274H509.845V278.5V283V287.5H505.345ZM491.845 287.5H487.345V283V278.5V274H491.845V278.5V283V287.5ZM505.345 274H500.845H496.345H491.845V269.5H496.345H500.845H505.345V274ZM554.845 292V287.5V283H550.345H545.845H541.345V278.5H545.845H550.345H554.845V274V269.5H559.345V274V278.5V283V287.5V292H554.845ZM541.345 278.5H536.845V274V269.5H541.345V274V278.5ZM577.345 287.5H581.845V292H577.345H572.845H568.345H563.845V287.5V283V278.5V274V269.5H568.345H572.845H577.345H581.845V274H577.345H572.845H568.345V278.5H572.845H577.345V283H572.845H568.345V287.5H572.845H577.345ZM604.345 292V287.5V283V278.5H599.845V283H595.345V278.5H599.845V274H604.345V269.5H608.845V274V278.5V283V287.5V292H604.345ZM586.345 292V287.5V283V278.5V274V269.5H590.845V274H595.345V278.5H590.845V283V287.5V292H586.345ZM847.345 287.5H851.845V283H847.345H842.845H838.345V287.5H842.845H847.345ZM847.345 292H842.845H838.345H833.845V287.5V283V278.5V274V269.5H838.345H842.845H847.345H851.845V274H856.345V278.5H851.845V274H847.345H842.845H838.345V278.5H842.845H847.345H851.845V283H856.345V287.5H851.845V292H847.345ZM878.845 292V287.5V283H874.345H869.845H865.345V287.5V292H860.845V287.5V283V278.5V274H865.345V278.5H869.845H874.345H878.845V274H883.345V278.5V283V287.5V292H878.845ZM878.845 274H874.345H869.845H865.345V269.5H869.845H874.345H878.845V274ZM905.845 292H901.345H896.845H892.345H887.845V287.5V283V278.5V274V269.5H892.345V274V278.5V283V287.5H896.845V283V278.5V274V269.5H901.345V274V278.5V283V287.5H905.845V283V278.5V274V269.5H910.345V274V278.5V283V287.5V292H905.845ZM932.845 292V287.5V283V278.5H928.345V283H923.845V287.5H919.345V292H914.845V287.5V283V278.5V274V269.5H919.345V274V278.5V283H923.845V278.5H928.345V274H932.845V269.5H937.345V274V278.5V283V287.5V292H932.845ZM244.345 341.5V337H248.845V341.5H244.345ZM239.845 350.5H244.345V355H239.845H235.345H230.845V350.5H235.345H239.845ZM244.345 350.5V346H248.845V350.5H244.345ZM230.845 350.5H226.345V346V341.5V337H230.845V341.5V346V350.5ZM244.345 337H239.845H235.345H230.845V332.5H235.345H239.845H244.345V337ZM266.845 350.5H271.345V355H266.845H262.345H257.845V350.5H262.345H266.845ZM271.345 350.5V346V341.5V337H275.845V341.5V346V350.5H271.345ZM257.845 350.5H253.345V346V341.5V337H257.845V341.5V346V350.5ZM271.345 337H266.845H262.345H257.845V332.5H262.345H266.845H271.345V337ZM289.345 355V350.5V346V341.5V337H284.845H280.345V332.5H284.845H289.345H293.845H298.345H302.845V337H298.345H293.845V341.5V346V350.5V355H289.345ZM307.345 355V350.5V346V341.5V337V332.5H311.845H316.345H320.845H325.345V337H329.845V341.5H325.345V337H320.845H316.345H311.845V341.5H316.345H320.845H325.345V346H320.845H316.345H311.845V350.5V355H307.345ZM347.845 350.5H352.345V355H347.845H343.345H338.845V350.5H343.345H347.845ZM352.345 350.5V346H347.845H343.345H338.845V341.5H343.345H347.845H352.345V337V332.5H356.845V337V341.5V346V350.5H352.345ZM338.845 341.5H334.345V337V332.5H338.845V337V341.5ZM383.845 359.5V355H379.345H374.845H370.345H365.845V359.5H361.345V355V350.5H365.845V346V341.5V337H370.345V332.5H374.845H379.345H383.845V337V341.5V346V350.5H388.345V355V359.5H383.845ZM374.845 350.5H379.345V346V341.5V337H374.845H370.345V341.5V346V350.5H374.845ZM410.845 355V350.5V346H406.345H401.845H397.345V350.5V355H392.845V350.5V346V341.5V337V332.5H397.345V337V341.5H401.845H406.345H410.845V337V332.5H415.345V337V341.5V346V350.5V355H410.845ZM437.845 355V350.5V346V341.5H433.345V346H428.845V350.5H424.345V355H419.845V350.5V346V341.5V337V332.5H424.345V337V341.5V346H428.845V341.5H433.345V337H437.845V332.5H442.345V337V341.5V346V350.5V355H437.845ZM464.845 355V350.5H469.345V355H464.845ZM446.845 355V350.5V346V341.5V337V332.5H451.345V337V341.5H455.845H460.345V346H464.845V350.5H460.345V346H455.845H451.345V350.5V355H446.845ZM460.345 341.5V337H464.845V341.5H460.345ZM464.845 337V332.5H469.345V337H464.845ZM491.845 355V350.5V346V341.5H487.345V346H482.845V350.5H478.345V355H473.845V350.5V346V341.5V337V332.5H478.345V337V341.5V346H482.845V341.5H487.345V337H491.845V332.5H496.345V337V341.5V346V350.5V355H491.845ZM500.845 355V350.5H505.345V355H500.845ZM509.845 355V350.5H514.345V355H509.845ZM518.845 355V350.5H523.345V355H518.845ZM226.345 418V413.5H230.845V418H226.345ZM230.845 413.5V409H235.345V413.5H230.845ZM235.345 409V404.5H239.845V409H235.345ZM235.345 404.5H230.845V400H235.345V404.5ZM230.845 400H226.345V395.5H230.845V400ZM244.345 418V413.5H248.845V418H244.345ZM248.845 413.5V409H253.345V413.5H248.845ZM253.345 409V404.5H257.845V409H253.345ZM253.345 404.5H248.845V400H253.345V404.5ZM248.845 400H244.345V395.5H248.845V400ZM302.845 418V413.5V409H298.345H293.845H289.345V413.5V418H284.845V413.5V409V404.5V400H289.345V404.5H293.845H298.345H302.845V400H307.345V404.5V409V413.5V418H302.845ZM302.845 400H298.345H293.845H289.345V395.5H293.845H298.345H302.845V400ZM347.845 413.5H352.345V409H347.845H343.345H338.845V413.5H343.345H347.845ZM347.845 418H343.345H338.845H334.345V413.5V409V404.5V400V395.5H338.845H343.345H347.845H352.345V400H356.845V404.5H352.345V400H347.845H343.345H338.845V404.5H343.345H347.845H352.345V409H356.845V413.5H352.345V418H347.845ZM388.345 418V413.5V409V404.5V400V395.5H392.845V400V404.5V409V413.5V418H388.345ZM374.845 413.5H379.345V409H374.845H370.345H365.845V413.5H370.345H374.845ZM374.845 418H370.345H365.845H361.345V413.5V409V404.5V400V395.5H365.845V400V404.5H370.345H374.845H379.345V409H383.845V413.5H379.345V418H374.845ZM401.845 418V413.5H406.345V418H401.845ZM401.845 409V404.5V400H406.345H410.845V404.5H406.345V409H401.845ZM410.845 400V395.5H415.345V400H410.845ZM410.845 395.5H406.345H401.845H397.345V391H401.845H406.345H410.845V395.5ZM419.845 418V413.5H424.345V418H419.845ZM428.845 418V413.5H433.345V418H428.845ZM437.845 418V413.5H442.345V418H437.845Z" fill="#040404"/>
<path d="M658.345 296.5V292H653.845H649.345H644.845H640.345V296.5H635.845V292V287.5H640.345V283V278.5V274H644.845V269.5H649.345H653.845H658.345V274V278.5V283V287.5H662.845V292V296.5H658.345ZM649.345 287.5H653.845V283V278.5V274H649.345H644.845V278.5V283V287.5H649.345ZM680.845 287.5H685.345V292H680.845H676.345H671.845V287.5H676.345H680.845ZM685.345 287.5V283H680.845H676.345H671.845V278.5H676.345H680.845H685.345V274V269.5H689.845V274V278.5V283V287.5H685.345ZM671.845 278.5H667.345V274V269.5H671.845V274V278.5ZM712.345 292V287.5V283V278.5H707.845V283H703.345V278.5H707.845V274H712.345V269.5H716.845V274V278.5V283V287.5V292H712.345ZM694.345 292V287.5V283V278.5V274V269.5H698.845V274H703.345V278.5H698.845V283V287.5V292H694.345ZM739.345 292V287.5V283H734.845H730.345H725.845V287.5V292H721.345V287.5V283V278.5V274H725.845V278.5H730.345H734.845H739.345V274H743.845V278.5V283V287.5V292H739.345ZM739.345 274H734.845H730.345H725.845V269.5H730.345H734.845H739.345V274ZM748.345 292V287.5V283V278.5V274V269.5H752.845V274V278.5H757.345V274H761.845V278.5V283V287.5H766.345H770.845H775.345V292H770.845H766.345H761.845V287.5H757.345V283H752.845V287.5V292H748.345ZM775.345 287.5V283V278.5V274H779.845V278.5V283V287.5H775.345ZM775.345 274H770.845H766.345H761.845V269.5H766.345H770.845H775.345V274ZM793.345 292V287.5V283V278.5V274H788.845H784.345V269.5H788.845H793.345H797.845H802.345H806.845V274H802.345H797.845V278.5V283V287.5V292H793.345ZM527.845 355V350.5V346H532.345V350.5V355H527.845ZM532.345 346V341.5H536.845V346H532.345ZM536.845 341.5V337V332.5H541.345V337V341.5H536.845ZM446.845 418V413.5V409H451.345V413.5V418H446.845ZM451.345 409V404.5H455.845V409H451.345ZM455.845 404.5V400V395.5H460.345V400V404.5H455.845Z" fill="#03A500"/>
<path d="M230.732 495V492H233.732V495H230.732ZM233.732 492V489H236.732V492H233.732ZM236.732 489V486H239.732V489H236.732ZM236.732 486H233.732V483H236.732V486ZM233.732 483H230.732V480H233.732V483ZM242.732 495V492H245.732V495H242.732ZM245.732 492V489H248.732V492H245.732ZM248.732 489V486H251.732V489H248.732ZM248.732 486H245.732V483H248.732V486ZM245.732 483H242.732V480H245.732V483ZM278.732 492H281.732V495H278.732H275.732H272.732V492H275.732H278.732ZM281.732 492V489H278.732H275.732H272.732V486H275.732H278.732H281.732V483V480H284.732V483V486V489V492H281.732ZM272.732 486H269.732V483V480H272.732V483V486ZM296.732 492H299.732V495H296.732H293.732H290.732H287.732V492H290.732H293.732H296.732ZM299.732 492V489H302.732V492H299.732ZM299.732 489H296.732H293.732H290.732H287.732V486H290.732H293.732H296.732H299.732V489ZM299.732 486V483H302.732V486H299.732ZM299.732 483H296.732H293.732H290.732H287.732V480H290.732H293.732H296.732H299.732V483ZM317.732 495V492V489H314.732H311.732H308.732V492V495H305.732V492V489V486V483V480H308.732V483V486H311.732H314.732H317.732V483V480H320.732V483V486V489V492V495H317.732ZM335.732 495V492V489H332.732H329.732H326.732V492V495H323.732V492V489V486V483H326.732V486H329.732H332.732H335.732V483H338.732V486V489V492V495H335.732ZM335.732 483H332.732H329.732H326.732V480H329.732H332.732H335.732V483ZM347.732 495V492V489V486V483H344.732H341.732V480H344.732H347.732H350.732H353.732H356.732V483H353.732H350.732V486V489V492V495H347.732ZM368.732 492H371.732V489H368.732H365.732H362.732V492H365.732H368.732ZM368.732 495H365.732H362.732H359.732V492V489V486V483V480H362.732V483V486H365.732H368.732H371.732V489H374.732V492H371.732V495H368.732ZM395.732 498H392.732V495V492V489V486V483V480V477H395.732H398.732V480H395.732V483V486V489V492V495H398.732V498H395.732ZM407.732 495V492V489V486H410.732V489V492V495H407.732ZM410.732 486V483H413.732V486H410.732ZM407.732 486H404.732V483H407.732V486ZM413.732 483V480H416.732V483H413.732ZM404.732 483H401.732V480H404.732V483ZM419.732 498V495H422.732V498H419.732ZM422.732 495V492H425.732V495H422.732ZM455.732 495V492H452.732V489H455.732V486V483V480H458.732V483V486V489V492V495H455.732ZM443.732 495V492V489V486V483V480H446.732V483H449.732V486H452.732V489H449.732V486H446.732V489V492V495H443.732ZM464.732 498H461.732V495H464.732V492V489V486V483V480H461.732V477H464.732H467.732V480V483V486V489V492V495V498H464.732ZM485.732 495V492V489H488.732V492V495H485.732ZM488.732 489V486H491.732V489H488.732ZM491.732 486V483V480H494.732V483V486H491.732ZM506.732 495H509.732V498H506.732H503.732H500.732H497.732V495H500.732H503.732H506.732Z" fill="#039A00" fill-opacity="0.98"/>
<rect x="193" y="142" width="924" height="34" rx="4" fill="black" fill-opacity="0.97"/>
<ellipse cx="205.285" cy="158" rx="4.38746" ry="5" fill="#A83B3B" fill-opacity="0.94"/>
<line x1="204.407" y1="152.75" x2="249.159" y2="152.75" stroke="black" stroke-width="0.5"/>
<ellipse cx="231.61" cy="158" rx="4.38746" ry="5" fill="#039900"/>
<ellipse cx="218.448" cy="158" rx="4.38746" ry="5" fill="#D8A800"/>
<path d="M487.08 96.832V103.28L487.015 104.968L486.987 105.497L492.489 96.832H494.409V107H492.971V100.784L492.999 99.5596L493.045 98.3535L487.553 107H485.633V96.832H487.08ZM504.531 98.1494H501.228V107H499.688V98.1494H496.422V96.832H504.531V98.1494ZM511.823 105.516L512.11 104.653L512.509 103.558L515.265 96.8506H517.222V107H515.858V98.604L515.673 99.1421L515.135 100.562L512.509 107H511.22L508.594 100.543C508.266 99.7142 508.041 99.0679 507.917 98.604V107H506.544V96.8506H508.427L511.09 103.298C511.356 103.979 511.6 104.718 511.823 105.516ZM529.292 101.907C529.292 103.564 528.875 104.86 528.04 105.794C527.205 106.722 526.051 107.186 524.579 107.186C523.67 107.186 522.863 106.972 522.158 106.545C521.453 106.119 520.908 105.506 520.525 104.708C520.141 103.911 519.95 102.977 519.95 101.907C519.95 100.249 520.364 98.9596 521.193 98.0381C522.022 97.1104 523.172 96.6465 524.644 96.6465C526.067 96.6465 527.195 97.1196 528.03 98.0659C528.871 99.0122 529.292 100.292 529.292 101.907ZM521.545 101.907C521.545 103.206 521.805 104.195 522.325 104.875C522.844 105.556 523.608 105.896 524.616 105.896C525.624 105.896 526.388 105.559 526.908 104.885C527.433 104.204 527.696 103.212 527.696 101.907C527.696 100.614 527.433 99.6338 526.908 98.9658C526.388 98.2917 525.618 97.9546 524.598 97.9546C523.59 97.9546 522.829 98.2855 522.315 98.9473C521.802 99.609 521.545 100.596 521.545 101.907ZM542.085 93.4365L537.029 107H535.489L540.545 93.4365H542.085ZM557.681 110.516H556.187V107H549.081V110.516H547.596V105.673H548.394C549.223 104.548 549.872 103.227 550.342 101.712C550.812 100.197 551.057 98.57 551.075 96.832H556.224V105.673H557.681V110.516ZM554.74 105.673V98.0474H552.458C552.377 99.4204 552.111 100.812 551.66 102.222C551.214 103.626 550.658 104.777 549.99 105.673H554.74ZM561.169 96.832V103.28L561.104 104.968L561.076 105.497L566.578 96.832H568.498V107H567.06V100.784L567.088 99.5596L567.134 98.3535L561.642 107H559.722V96.832H561.169ZM573.304 107H571.764V96.832H580.299V107H578.74V98.168H573.304V107ZM591.144 107H589.585V98.1494H586.533C586.366 100.351 586.134 102.098 585.837 103.391C585.541 104.684 585.154 105.63 584.678 106.23C584.208 106.83 583.608 107.13 582.878 107.13C582.544 107.13 582.278 107.093 582.08 107.019V105.877C582.216 105.915 582.371 105.933 582.544 105.933C583.255 105.933 583.821 105.182 584.242 103.679C584.662 102.176 584.981 99.8936 585.197 96.832H591.144V107ZM603.195 101.907C603.195 103.564 602.778 104.86 601.943 105.794C601.108 106.722 599.954 107.186 598.482 107.186C597.573 107.186 596.766 106.972 596.061 106.545C595.356 106.119 594.812 105.506 594.428 104.708C594.045 103.911 593.853 102.977 593.853 101.907C593.853 100.249 594.267 98.9596 595.096 98.0381C595.925 97.1104 597.075 96.6465 598.547 96.6465C599.97 96.6465 601.099 97.1196 601.934 98.0659C602.775 99.0122 603.195 100.292 603.195 101.907ZM595.449 101.907C595.449 103.206 595.708 104.195 596.228 104.875C596.748 105.556 597.511 105.896 598.52 105.896C599.528 105.896 600.292 105.559 600.811 104.885C601.337 104.204 601.6 103.212 601.6 101.907C601.6 100.614 601.337 99.6338 600.811 98.9658C600.292 98.2917 599.521 97.9546 598.501 97.9546C597.493 97.9546 596.732 98.2855 596.219 98.9473C595.705 99.609 595.449 100.596 595.449 101.907ZM611.183 105.516L611.471 104.653L611.87 103.558L614.625 96.8506H616.583V107H615.219V98.604L615.033 99.1421L614.495 100.562L611.87 107H610.58L607.955 100.543C607.627 99.7142 607.401 99.0679 607.277 98.604V107H605.904V96.8506H607.788L610.45 103.298C610.716 103.979 610.96 104.718 611.183 105.516ZM629.96 93.4365L624.904 107H623.364L628.42 93.4365H629.96ZM638.171 96.832V103.28L638.106 104.968L638.078 105.497L643.58 96.832H645.5V107H644.062V100.784L644.09 99.5596L644.136 98.3535L638.644 107H636.724V96.832H638.171ZM652.829 107.186C651.357 107.186 650.216 106.734 649.406 105.831C648.602 104.922 648.2 103.639 648.2 101.981C648.2 100.28 648.608 98.9658 649.424 98.0381C650.247 97.1104 651.416 96.6465 652.931 96.6465C653.42 96.6465 653.908 96.6991 654.397 96.8042C654.886 96.9093 655.269 97.033 655.547 97.1753L655.074 98.4834C654.734 98.3473 654.363 98.236 653.961 98.1494C653.559 98.0566 653.203 98.0103 652.894 98.0103C650.828 98.0103 649.795 99.3276 649.795 101.962C649.795 103.212 650.046 104.17 650.547 104.838C651.054 105.506 651.802 105.84 652.792 105.84C653.639 105.84 654.508 105.658 655.399 105.293V106.657C654.719 107.009 653.862 107.186 652.829 107.186ZM661.884 107.186C660.412 107.186 659.271 106.734 658.46 105.831C657.656 104.922 657.254 103.639 657.254 101.981C657.254 100.28 657.663 98.9658 658.479 98.0381C659.302 97.1104 660.471 96.6465 661.986 96.6465C662.474 96.6465 662.963 96.6991 663.452 96.8042C663.94 96.9093 664.324 97.033 664.602 97.1753L664.129 98.4834C663.789 98.3473 663.418 98.236 663.016 98.1494C662.614 98.0566 662.258 98.0103 661.949 98.0103C659.883 98.0103 658.85 99.3276 658.85 101.962C658.85 103.212 659.101 104.17 659.602 104.838C660.109 105.506 660.857 105.84 661.847 105.84C662.694 105.84 663.563 105.658 664.454 105.293V106.657C663.773 107.009 662.917 107.186 661.884 107.186ZM674.455 107H672.896V98.1494H669.844C669.677 100.351 669.445 102.098 669.148 103.391C668.851 104.684 668.465 105.63 667.988 106.23C667.518 106.83 666.918 107.13 666.188 107.13C665.854 107.13 665.589 107.093 665.391 107.019V105.877C665.527 105.915 665.681 105.933 665.854 105.933C666.566 105.933 667.132 105.182 667.552 103.679C667.973 102.176 668.291 99.8936 668.508 96.832H674.455V107ZM682.025 107.186C680.522 107.186 679.334 106.728 678.462 105.812C677.597 104.897 677.164 103.626 677.164 102C677.164 100.361 677.566 99.0586 678.37 98.0938C679.18 97.1289 680.265 96.6465 681.626 96.6465C682.9 96.6465 683.908 97.0671 684.65 97.9082C685.393 98.7432 685.764 99.8472 685.764 101.22V102.194H678.759C678.79 103.388 679.09 104.294 679.659 104.913C680.234 105.531 681.042 105.84 682.081 105.84C683.175 105.84 684.258 105.611 685.328 105.154V106.527C684.783 106.762 684.267 106.929 683.778 107.028C683.296 107.133 682.711 107.186 682.025 107.186ZM681.607 97.936C680.791 97.936 680.139 98.202 679.65 98.7339C679.167 99.2658 678.883 100.002 678.796 100.942H684.112C684.112 99.9709 683.896 99.2287 683.463 98.7153C683.03 98.1958 682.411 97.936 681.607 97.936ZM697.23 110.516H695.737V107H688.63V110.516H687.146V105.673H687.944C688.773 104.548 689.422 103.227 689.892 101.712C690.362 100.197 690.606 98.57 690.625 96.832H695.774V105.673H697.23V110.516ZM694.29 105.673V98.0474H692.007C691.927 99.4204 691.661 100.812 691.209 102.222C690.764 103.626 690.208 104.777 689.54 105.673H694.29ZM708.048 101.907C708.048 103.564 707.63 104.86 706.795 105.794C705.96 106.722 704.807 107.186 703.335 107.186C702.426 107.186 701.619 106.972 700.914 106.545C700.208 106.119 699.664 105.506 699.281 104.708C698.897 103.911 698.706 102.977 698.706 101.907C698.706 100.249 699.12 98.9596 699.949 98.0381C700.778 97.1104 701.928 96.6465 703.4 96.6465C704.822 96.6465 705.951 97.1196 706.786 98.0659C707.627 99.0122 708.048 100.292 708.048 101.907ZM700.301 101.907C700.301 103.206 700.561 104.195 701.081 104.875C701.6 105.556 702.364 105.896 703.372 105.896C704.38 105.896 705.144 105.559 705.664 104.885C706.189 104.204 706.452 103.212 706.452 101.907C706.452 100.614 706.189 99.6338 705.664 98.9658C705.144 98.2917 704.374 97.9546 703.354 97.9546C702.345 97.9546 701.585 98.2855 701.071 98.9473C700.558 99.609 700.301 100.596 700.301 101.907ZM719.004 99.3833C719.004 100.045 718.813 100.549 718.429 100.896C718.052 101.236 717.52 101.465 716.833 101.582V101.666C717.699 101.783 718.33 102.037 718.726 102.426C719.128 102.816 719.329 103.354 719.329 104.041C719.329 104.987 718.98 105.717 718.281 106.23C717.588 106.743 716.574 107 715.238 107H710.757V96.832H715.219C717.743 96.832 719.004 97.6825 719.004 99.3833ZM717.789 103.938C717.789 103.388 717.579 102.989 717.158 102.742C716.744 102.488 716.054 102.361 715.089 102.361H712.297V105.71H715.126C716.902 105.71 717.789 105.12 717.789 103.938ZM717.501 99.5317C717.501 99.0369 717.31 98.6875 716.926 98.4834C716.549 98.2731 715.974 98.168 715.201 98.168H712.297V101.035H714.904C715.856 101.035 716.527 100.917 716.917 100.682C717.307 100.447 717.501 100.064 717.501 99.5317ZM727.827 107L727.521 105.553H727.447C726.94 106.19 726.432 106.623 725.925 106.852C725.424 107.074 724.797 107.186 724.042 107.186C723.034 107.186 722.242 106.926 721.667 106.406C721.098 105.887 720.813 105.148 720.813 104.189C720.813 102.136 722.456 101.059 725.74 100.96L727.465 100.905V100.274C727.465 99.4761 727.292 98.8885 726.946 98.5112C726.606 98.1278 726.058 97.936 725.304 97.936C724.456 97.936 723.498 98.1958 722.428 98.7153L721.955 97.5371C722.456 97.265 723.003 97.0516 723.597 96.897C724.197 96.7424 724.797 96.665 725.396 96.665C726.609 96.665 727.506 96.9341 728.087 97.4722C728.674 98.0103 728.968 98.873 728.968 100.061V107H727.827ZM724.348 105.915C725.307 105.915 726.058 105.652 726.603 105.126C727.153 104.6 727.428 103.864 727.428 102.918V102L725.888 102.064C724.664 102.108 723.779 102.299 723.235 102.64C722.697 102.974 722.428 103.496 722.428 104.208C722.428 104.764 722.595 105.188 722.929 105.479C723.269 105.769 723.742 105.915 724.348 105.915ZM733.69 96.832V101.09H739.387V96.832H740.927V107H739.387V102.417H733.69V107H732.15V96.832H733.69ZM745.64 96.832V103.28L745.575 104.968L745.547 105.497L751.048 96.832H752.969V107H751.531V100.784L751.559 99.5596L751.605 98.3535L746.113 107H744.192V96.832H745.64ZM760.53 107.186C759.027 107.186 757.839 106.728 756.967 105.812C756.101 104.897 755.668 103.626 755.668 102C755.668 100.361 756.07 99.0586 756.875 98.0938C757.685 97.1289 758.77 96.6465 760.131 96.6465C761.405 96.6465 762.413 97.0671 763.155 97.9082C763.897 98.7432 764.269 99.8472 764.269 101.22V102.194H757.264C757.295 103.388 757.595 104.294 758.164 104.913C758.739 105.531 759.546 105.84 760.585 105.84C761.68 105.84 762.763 105.611 763.833 105.154V106.527C763.288 106.762 762.772 106.929 762.283 107.028C761.801 107.133 761.216 107.186 760.53 107.186ZM760.112 97.936C759.296 97.936 758.643 98.202 758.155 98.7339C757.672 99.2658 757.388 100.002 757.301 100.942H762.617C762.617 99.9709 762.401 99.2287 761.968 98.7153C761.535 98.1958 760.916 97.936 760.112 97.936ZM770.225 96.832H771.876L774.103 102.63C774.591 103.954 774.894 104.91 775.012 105.497H775.086C775.166 105.182 775.333 104.644 775.587 103.883C775.847 103.116 776.688 100.766 778.11 96.832H779.762L775.392 108.41C774.959 109.554 774.452 110.365 773.871 110.841C773.295 111.323 772.587 111.564 771.746 111.564C771.276 111.564 770.812 111.512 770.354 111.407V110.173C770.695 110.247 771.075 110.284 771.496 110.284C772.553 110.284 773.308 109.69 773.759 108.503L774.325 107.056L770.225 96.832ZM790.245 110.516H788.751V107H781.645V110.516H780.161V105.673H780.958C781.787 104.548 782.437 103.227 782.907 101.712C783.377 100.197 783.621 98.57 783.64 96.832H788.789V105.673H790.245V110.516ZM787.304 105.673V98.0474H785.022C784.942 99.4204 784.676 100.812 784.224 102.222C783.779 103.626 783.222 104.777 782.554 105.673H787.304ZM801.062 101.907C801.062 103.564 800.645 104.86 799.81 105.794C798.975 106.722 797.822 107.186 796.35 107.186C795.44 107.186 794.633 106.972 793.928 106.545C793.223 106.119 792.679 105.506 792.295 104.708C791.912 103.911 791.72 102.977 791.72 101.907C791.72 100.249 792.135 98.9596 792.963 98.0381C793.792 97.1104 794.943 96.6465 796.415 96.6465C797.837 96.6465 798.966 97.1196 799.801 98.0659C800.642 99.0122 801.062 100.292 801.062 101.907ZM793.316 101.907C793.316 103.206 793.576 104.195 794.095 104.875C794.615 105.556 795.379 105.896 796.387 105.896C797.395 105.896 798.159 105.559 798.678 104.885C799.204 104.204 799.467 103.212 799.467 101.907C799.467 100.614 799.204 99.6338 798.678 98.9658C798.159 98.2917 797.389 97.9546 796.368 97.9546C795.36 97.9546 794.599 98.2855 794.086 98.9473C793.573 99.609 793.316 100.596 793.316 101.907ZM812.019 99.3833C812.019 100.045 811.827 100.549 811.444 100.896C811.067 101.236 810.535 101.465 809.848 101.582V101.666C810.714 101.783 811.345 102.037 811.741 102.426C812.143 102.816 812.344 103.354 812.344 104.041C812.344 104.987 811.994 105.717 811.295 106.23C810.603 106.743 809.588 107 808.252 107H803.771V96.832H808.234C810.757 96.832 812.019 97.6825 812.019 99.3833ZM810.804 103.938C810.804 103.388 810.593 102.989 810.173 102.742C809.758 102.488 809.069 102.361 808.104 102.361H805.312V105.71H808.141C809.916 105.71 810.804 105.12 810.804 103.938ZM810.516 99.5317C810.516 99.0369 810.324 98.6875 809.941 98.4834C809.564 98.2731 808.988 98.168 808.215 98.168H805.312V101.035H807.918C808.871 101.035 809.542 100.917 809.932 100.682C810.321 100.447 810.516 100.064 810.516 99.5317ZM822.168 107H820.61V98.1494H817.558C817.391 100.351 817.159 102.098 816.862 103.391C816.565 104.684 816.178 105.63 815.702 106.23C815.232 106.83 814.632 107.13 813.902 107.13C813.568 107.13 813.302 107.093 813.104 107.019V105.877C813.241 105.915 813.395 105.933 813.568 105.933C814.28 105.933 814.846 105.182 815.266 103.679C815.687 102.176 816.005 99.8936 816.222 96.832H822.168V107ZM829.739 107.186C828.236 107.186 827.048 106.728 826.176 105.812C825.31 104.897 824.877 103.626 824.877 102C824.877 100.361 825.279 99.0586 826.083 98.0938C826.894 97.1289 827.979 96.6465 829.34 96.6465C830.614 96.6465 831.622 97.0671 832.364 97.9082C833.106 98.7432 833.478 99.8472 833.478 101.22V102.194H826.473C826.504 103.388 826.804 104.294 827.373 104.913C827.948 105.531 828.755 105.84 829.794 105.84C830.889 105.84 831.972 105.611 833.042 105.154V106.527C832.497 106.762 831.981 106.929 831.492 107.028C831.01 107.133 830.425 107.186 829.739 107.186ZM829.321 97.936C828.505 97.936 827.852 98.202 827.364 98.7339C826.881 99.2658 826.597 100.002 826.51 100.942H831.826C831.826 99.9709 831.61 99.2287 831.177 98.7153C830.744 98.1958 830.125 97.936 829.321 97.936ZM842.968 98.1494H839.666V107H838.125V98.1494H834.86V96.832H842.968V98.1494ZM853.229 99.3833C853.229 100.045 853.037 100.549 852.654 100.896C852.277 101.236 851.745 101.465 851.058 101.582V101.666C851.924 101.783 852.555 102.037 852.951 102.426C853.353 102.816 853.554 103.354 853.554 104.041C853.554 104.987 853.204 105.717 852.505 106.23C851.813 106.743 850.798 107 849.462 107H844.981V96.832H849.444C851.967 96.832 853.229 97.6825 853.229 99.3833ZM852.014 103.938C852.014 103.388 851.803 102.989 851.383 102.742C850.968 102.488 850.279 102.361 849.314 102.361H846.521V105.71H849.351C851.126 105.71 852.014 105.12 852.014 103.938ZM851.726 99.5317C851.726 99.0369 851.534 98.6875 851.151 98.4834C850.774 98.2731 850.198 98.168 849.425 98.168H846.521V101.035H849.128C850.081 101.035 850.752 100.917 851.142 100.682C851.531 100.447 851.726 100.064 851.726 99.5317ZM864.575 101.907C864.575 103.564 864.158 104.86 863.323 105.794C862.488 106.722 861.334 107.186 859.862 107.186C858.953 107.186 858.146 106.972 857.441 106.545C856.736 106.119 856.192 105.506 855.808 104.708C855.425 103.911 855.233 102.977 855.233 101.907C855.233 100.249 855.647 98.9596 856.476 98.0381C857.305 97.1104 858.455 96.6465 859.927 96.6465C861.35 96.6465 862.479 97.1196 863.313 98.0659C864.155 99.0122 864.575 100.292 864.575 101.907ZM856.829 101.907C856.829 103.206 857.088 104.195 857.608 104.875C858.127 105.556 858.891 105.896 859.899 105.896C860.908 105.896 861.671 105.559 862.191 104.885C862.717 104.204 862.979 103.212 862.979 101.907C862.979 100.614 862.717 99.6338 862.191 98.9658C861.671 98.2917 860.901 97.9546 859.881 97.9546C858.873 97.9546 858.112 98.2855 857.599 98.9473C857.085 99.609 856.829 100.596 856.829 101.907ZM872.016 107.186C871.354 107.186 870.748 107.065 870.197 106.824C869.653 106.576 869.195 106.199 868.824 105.692H868.713C868.787 106.286 868.824 106.848 868.824 107.38V111.564H867.284V96.832H868.537L868.75 98.2236H868.824C869.22 97.667 869.681 97.265 870.207 97.0176C870.732 96.7702 871.335 96.6465 872.016 96.6465C873.364 96.6465 874.403 97.1073 875.133 98.0288C875.869 98.9504 876.237 100.243 876.237 101.907C876.237 103.577 875.863 104.875 875.114 105.803C874.372 106.725 873.339 107.186 872.016 107.186ZM871.793 97.9546C870.754 97.9546 870.002 98.2422 869.539 98.8174C869.075 99.3926 868.837 100.308 868.824 101.563V101.907C868.824 103.335 869.062 104.359 869.539 104.978C870.015 105.59 870.779 105.896 871.83 105.896C872.708 105.896 873.395 105.54 873.89 104.829C874.391 104.118 874.641 103.138 874.641 101.888C874.641 100.62 874.391 99.6493 873.89 98.9751C873.395 98.2948 872.696 97.9546 871.793 97.9546ZM883.232 107.186C881.729 107.186 880.542 106.728 879.669 105.812C878.804 104.897 878.371 103.626 878.371 102C878.371 100.361 878.773 99.0586 879.577 98.0938C880.387 97.1289 881.472 96.6465 882.833 96.6465C884.107 96.6465 885.115 97.0671 885.857 97.9082C886.6 98.7432 886.971 99.8472 886.971 101.22V102.194H879.966C879.997 103.388 880.297 104.294 880.866 104.913C881.441 105.531 882.249 105.84 883.288 105.84C884.382 105.84 885.465 105.611 886.535 105.154V106.527C885.99 106.762 885.474 106.929 884.985 107.028C884.503 107.133 883.918 107.186 883.232 107.186ZM882.814 97.936C881.998 97.936 881.346 98.202 880.857 98.7339C880.375 99.2658 880.09 100.002 880.003 100.942H885.319C885.319 99.9709 885.103 99.2287 884.67 98.7153C884.237 98.1958 883.618 97.936 882.814 97.936ZM880.245 94.0767C880.245 93.755 880.325 93.5231 880.486 93.3809C880.653 93.2386 880.851 93.1675 881.08 93.1675C881.315 93.1675 881.516 93.2386 881.683 93.3809C881.856 93.5231 881.942 93.755 881.942 94.0767C881.942 94.3859 881.856 94.6178 881.683 94.7725C881.516 94.9209 881.315 94.9951 881.08 94.9951C880.851 94.9951 880.653 94.9209 880.486 94.7725C880.325 94.6178 880.245 94.3859 880.245 94.0767ZM883.779 94.0767C883.779 93.755 883.86 93.5231 884.021 93.3809C884.188 93.2386 884.385 93.1675 884.614 93.1675C884.843 93.1675 885.041 93.2386 885.208 93.3809C885.381 93.5231 885.468 93.755 885.468 94.0767C885.468 94.3859 885.381 94.6178 885.208 94.7725C885.041 94.9209 884.843 94.9951 884.614 94.9951C884.385 94.9951 884.188 94.9209 884.021 94.7725C883.86 94.6178 883.779 94.3859 883.779 94.0767ZM891.146 96.832V101.09H896.842V96.832H898.382V107H896.842V102.417H891.146V107H889.605V96.832H891.146ZM903.188 96.832V101.09H908.884V96.832H910.424V107H908.884V102.417H903.188V107H901.647V96.832H903.188ZM922.466 101.907C922.466 103.564 922.048 104.86 921.213 105.794C920.378 106.722 919.225 107.186 917.753 107.186C916.844 107.186 916.037 106.972 915.332 106.545C914.626 106.119 914.082 105.506 913.699 104.708C913.315 103.911 913.124 102.977 913.124 101.907C913.124 100.249 913.538 98.9596 914.367 98.0381C915.195 97.1104 916.346 96.6465 917.818 96.6465C919.24 96.6465 920.369 97.1196 921.204 98.0659C922.045 99.0122 922.466 100.292 922.466 101.907ZM914.719 101.907C914.719 103.206 914.979 104.195 915.499 104.875C916.018 105.556 916.782 105.896 917.79 105.896C918.798 105.896 919.562 105.559 920.082 104.885C920.607 104.204 920.87 103.212 920.87 101.907C920.87 100.614 920.607 99.6338 920.082 98.9658C919.562 98.2917 918.792 97.9546 917.771 97.9546C916.763 97.9546 916.003 98.2855 915.489 98.9473C914.976 99.609 914.719 100.596 914.719 101.907ZM929.238 107.186C927.766 107.186 926.625 106.734 925.815 105.831C925.011 104.922 924.609 103.639 924.609 101.981C924.609 100.28 925.017 98.9658 925.833 98.0381C926.656 97.1104 927.825 96.6465 929.34 96.6465C929.829 96.6465 930.318 96.6991 930.806 96.8042C931.295 96.9093 931.678 97.033 931.957 97.1753L931.483 98.4834C931.143 98.3473 930.772 98.236 930.37 98.1494C929.968 98.0566 929.612 98.0103 929.303 98.0103C927.237 98.0103 926.205 99.3276 926.205 101.962C926.205 103.212 926.455 104.17 926.956 104.838C927.463 105.506 928.212 105.84 929.201 105.84C930.049 105.84 930.917 105.658 931.808 105.293V106.657C931.128 107.009 930.271 107.186 929.238 107.186ZM941.085 98.1494H937.783V107H936.243V98.1494H932.977V96.832H941.085V98.1494ZM944.546 96.832V103.28L944.481 104.968L944.453 105.497L949.955 96.832H951.875V107H950.437V100.784L950.465 99.5596L950.511 98.3535L945.019 107H943.099V96.832H944.546ZM958.462 96.832H960.113L962.34 102.63C962.828 103.954 963.132 104.91 963.249 105.497H963.323C963.404 105.182 963.571 104.644 963.824 103.883C964.084 103.116 964.925 100.766 966.348 96.832H967.999L963.629 108.41C963.196 109.554 962.689 110.365 962.108 110.841C961.533 111.323 960.825 111.564 959.983 111.564C959.513 111.564 959.049 111.512 958.592 111.407V110.173C958.932 110.247 959.312 110.284 959.733 110.284C960.791 110.284 961.545 109.69 961.997 108.503L962.562 107.056L958.462 96.832ZM973.714 107.186C972.242 107.186 971.101 106.734 970.291 105.831C969.486 104.922 969.084 103.639 969.084 101.981C969.084 100.28 969.493 98.9658 970.309 98.0381C971.132 97.1104 972.301 96.6465 973.816 96.6465C974.305 96.6465 974.793 96.6991 975.282 96.8042C975.77 96.9093 976.154 97.033 976.432 97.1753L975.959 98.4834C975.619 98.3473 975.248 98.236 974.846 98.1494C974.444 98.0566 974.088 98.0103 973.779 98.0103C971.713 98.0103 970.68 99.3276 970.68 101.962C970.68 103.212 970.931 104.17 971.432 104.838C971.939 105.506 972.687 105.84 973.677 105.84C974.524 105.84 975.393 105.658 976.284 105.293V106.657C975.603 107.009 974.747 107.186 973.714 107.186ZM986.285 107H984.726V98.1494H981.674C981.507 100.351 981.275 102.098 980.978 103.391C980.681 104.684 980.295 105.63 979.818 106.23C979.348 106.83 978.748 107.13 978.019 107.13C977.685 107.13 977.419 107.093 977.221 107.019V105.877C977.357 105.915 977.511 105.933 977.685 105.933C978.396 105.933 978.962 105.182 979.382 103.679C979.803 102.176 980.121 99.8936 980.338 96.832H986.285V107ZM998.336 101.907C998.336 103.564 997.918 104.86 997.083 105.794C996.249 106.722 995.095 107.186 993.623 107.186C992.714 107.186 991.907 106.972 991.202 106.545C990.497 106.119 989.952 105.506 989.569 104.708C989.185 103.911 988.994 102.977 988.994 101.907C988.994 100.249 989.408 98.9596 990.237 98.0381C991.066 97.1104 992.216 96.6465 993.688 96.6465C995.111 96.6465 996.239 97.1196 997.074 98.0659C997.915 99.0122 998.336 100.292 998.336 101.907ZM990.589 101.907C990.589 103.206 990.849 104.195 991.369 104.875C991.888 105.556 992.652 105.896 993.66 105.896C994.668 105.896 995.432 105.559 995.952 104.885C996.477 104.204 996.74 103.212 996.74 101.907C996.74 100.614 996.477 99.6338 995.952 98.9658C995.432 98.2917 994.662 97.9546 993.642 97.9546C992.633 97.9546 991.873 98.2855 991.359 98.9473C990.846 99.609 990.589 100.596 990.589 101.907ZM1009.29 99.3833C1009.29 100.045 1009.1 100.549 1008.72 100.896C1008.34 101.236 1007.81 101.465 1007.12 101.582V101.666C1007.99 101.783 1008.62 102.037 1009.01 102.426C1009.42 102.816 1009.62 103.354 1009.62 104.041C1009.62 104.987 1009.27 105.717 1008.57 106.23C1007.88 106.743 1006.86 107 1005.53 107H1001.04V96.832H1005.51C1008.03 96.832 1009.29 97.6825 1009.29 99.3833ZM1008.08 103.938C1008.08 103.388 1007.87 102.989 1007.45 102.742C1007.03 102.488 1006.34 102.361 1005.38 102.361H1002.58V105.71H1005.41C1007.19 105.71 1008.08 105.12 1008.08 103.938ZM1007.79 99.5317C1007.79 99.0369 1007.6 98.6875 1007.21 98.4834C1006.84 98.2731 1006.26 98.168 1005.49 98.168H1002.58V101.035H1005.19C1006.14 101.035 1006.82 100.917 1007.21 100.682C1007.59 100.447 1007.79 100.064 1007.79 99.5317ZM1013.31 96.832V103.28L1013.24 104.968L1013.22 105.497L1018.72 96.832H1020.64V107H1019.2V100.784L1019.23 99.5596L1019.27 98.3535L1013.78 107H1011.86V96.832H1013.31ZM1024.41 107H1022.61L1025.54 102.705C1024.75 102.531 1024.15 102.197 1023.73 101.703C1023.31 101.202 1023.11 100.574 1023.11 99.8193C1023.11 98.8916 1023.42 98.1618 1024.04 97.6299C1024.67 97.098 1025.54 96.832 1026.66 96.832H1031.19V107H1029.65V102.937H1027.08L1024.41 107ZM1024.61 99.8379C1024.61 101.013 1025.46 101.601 1027.17 101.601H1029.65V98.168H1026.85C1025.36 98.168 1024.61 98.7246 1024.61 99.8379ZM1039.74 105.516L1040.03 104.653L1040.43 103.558L1043.18 96.8506H1045.14V107H1043.78V98.604L1043.59 99.1421L1043.05 100.562L1040.43 107H1039.14L1036.51 100.543C1036.18 99.7142 1035.96 99.0679 1035.83 98.604V107H1034.46V96.8506H1036.35L1039.01 103.298C1039.27 103.979 1039.52 104.718 1039.74 105.516ZM1049.88 96.832V103.28L1049.82 104.968L1049.79 105.497L1055.29 96.832H1057.21V107H1055.77V100.784L1055.8 99.5596L1055.85 98.3535L1050.35 107H1048.43V96.832H1049.88ZM1072.27 98.1494H1068.96V107H1067.42V98.1494H1064.16V96.832H1072.27V98.1494ZM1079.01 107.186C1078.35 107.186 1077.74 107.065 1077.19 106.824C1076.65 106.576 1076.19 106.199 1075.82 105.692H1075.71C1075.78 106.286 1075.82 106.848 1075.82 107.38V111.564H1074.28V96.832H1075.53L1075.75 98.2236H1075.82C1076.22 97.667 1076.68 97.265 1077.2 97.0176C1077.73 96.7702 1078.33 96.6465 1079.01 96.6465C1080.36 96.6465 1081.4 97.1073 1082.13 98.0288C1082.86 98.9504 1083.23 100.243 1083.23 101.907C1083.23 103.577 1082.86 104.875 1082.11 105.803C1081.37 106.725 1080.34 107.186 1079.01 107.186ZM1078.79 97.9546C1077.75 97.9546 1077 98.2422 1076.53 98.8174C1076.07 99.3926 1075.83 100.308 1075.82 101.563V101.907C1075.82 103.335 1076.06 104.359 1076.53 104.978C1077.01 105.59 1077.77 105.896 1078.83 105.896C1079.7 105.896 1080.39 105.54 1080.89 104.829C1081.39 104.118 1081.64 103.138 1081.64 101.888C1081.64 100.62 1081.39 99.6493 1080.89 98.9751C1080.39 98.2948 1079.69 97.9546 1078.79 97.9546ZM1084.32 96.832H1085.97L1088.2 102.63C1088.68 103.954 1088.99 104.91 1089.11 105.497H1089.18C1089.26 105.182 1089.43 104.644 1089.68 103.883C1089.94 103.116 1090.78 100.766 1092.2 96.832H1093.86L1089.49 108.41C1089.05 109.554 1088.55 110.365 1087.96 110.841C1087.39 111.323 1086.68 111.564 1085.84 111.564C1085.37 111.564 1084.91 111.512 1084.45 111.407V110.173C1084.79 110.247 1085.17 110.284 1085.59 110.284C1086.65 110.284 1087.4 109.69 1087.85 108.503L1088.42 107.056L1084.32 96.832ZM1104.34 110.516H1102.85V107H1095.74V110.516H1094.25V105.673H1095.05C1095.88 104.548 1096.53 103.227 1097 101.712C1097.47 100.197 1097.71 98.57 1097.73 96.832H1102.88V105.673H1104.34V110.516ZM1101.4 105.673V98.0474H1099.12C1099.04 99.4204 1098.77 100.812 1098.32 102.222C1097.87 103.626 1097.32 104.777 1096.65 105.673H1101.4ZM1112.63 107L1112.33 105.553H1112.25C1111.75 106.19 1111.24 106.623 1110.73 106.852C1110.23 107.074 1109.6 107.186 1108.85 107.186C1107.84 107.186 1107.05 106.926 1106.47 106.406C1105.9 105.887 1105.62 105.148 1105.62 104.189C1105.62 102.136 1107.26 101.059 1110.55 100.96L1112.27 100.905V100.274C1112.27 99.4761 1112.1 98.8885 1111.75 98.5112C1111.41 98.1278 1110.86 97.936 1110.11 97.936C1109.26 97.936 1108.3 98.1958 1107.23 98.7153L1106.76 97.5371C1107.26 97.265 1107.81 97.0516 1108.4 96.897C1109 96.7424 1109.6 96.665 1110.2 96.665C1111.41 96.665 1112.31 96.9341 1112.89 97.4722C1113.48 98.0103 1113.77 98.873 1113.77 100.061V107H1112.63ZM1109.15 105.915C1110.11 105.915 1110.86 105.652 1111.41 105.126C1111.96 104.6 1112.23 103.864 1112.23 102.918V102L1110.69 102.064C1109.47 102.108 1108.58 102.299 1108.04 102.64C1107.5 102.974 1107.23 103.496 1107.23 104.208C1107.23 104.764 1107.4 105.188 1107.73 105.479C1108.07 105.769 1108.55 105.915 1109.15 105.915Z" fill="#A6A6A6"/>
<defs>
<filter id="filter0_d" x="165" y="158" width="951.95" height="478" filterUnits="userSpaceOnUse" color-interpolation-filters="sRGB">
<feFlood flood-opacity="0" result="BackgroundImageFix"/>
<feColorMatrix in="SourceAlpha" type="matrix" values="0 0 0 0 0 0 0 0 0 0 0 0 0 0 0 0 0 0 127 0"/>
<feOffset dx="-18" dy="18"/>
<feGaussianBlur stdDeviation="5"/>
<feColorMatrix type="matrix" values="0 0 0 0 0 0 0 0 0 0 0 0 0 0 0 0 0 0 0.15 0"/>
<feBlend mode="normal" in2="BackgroundImageFix" result="effect1_dropShadow"/>
<feBlend mode="normal" in="SourceGraphic" in2="effect1_dropShadow" result="shape"/>
</filter>
</defs>
</svg>
